<svg width="177" height="32" viewBox="0 0 177 32" fill="none" xmlns="http://www.w3.org/2000/svg">
<g clip-path="url(#clip0_410_310)">
<path d="M35.7233 8.93379C29.2933 8.93379 24.2691 13.8739 24.2691 20.4872C24.2691 27.1006 29.1663 31.9984 35.7233 31.9984C42.2802 31.9984 47.2626 27.016 47.2626 20.4449C47.2626 13.9162 42.3653 8.93379 35.7233 8.93379ZM35.7666 27.2323C32.105 27.2323 29.4218 24.3541 29.4218 20.4888C29.4218 16.5797 32.0616 13.7031 35.7233 13.7031C39.4283 13.7031 42.1099 16.6236 42.1099 20.4888C42.1099 24.3541 39.4283 27.2323 35.7666 27.2323ZM48.6668 13.9601H51.8609V31.5707H56.9702V9.36308H48.6668V13.9601ZM11.4108 13.7015C14.0939 13.7015 16.2228 15.3764 17.031 17.8676H22.4391C21.459 12.5421 17.1161 8.93379 11.4541 8.93379C5.02414 8.93379 0 13.8739 0 20.4888C0 27.1038 4.89721 32 11.4541 32C16.9892 32 21.4172 28.3917 22.3973 23.0223H17.031C16.2646 25.5135 14.1357 27.2323 11.4525 27.2323C7.74749 27.2323 5.15107 24.3541 5.15107 20.4888C5.15267 16.5797 7.70732 13.7015 11.4108 13.7015ZM145.747 18.3408L142 17.783C140.212 17.5261 138.934 16.9244 138.934 15.5065C138.934 13.9601 140.595 13.1877 142.851 13.1877C145.321 13.1877 146.897 14.2609 147.238 16.022H152.177C151.622 11.5551 148.216 8.93541 142.98 8.93541C137.572 8.93541 133.995 11.7274 133.995 15.6788C133.995 19.4579 136.338 21.6499 141.063 22.3361L144.81 22.8938C146.641 23.1508 147.663 23.8825 147.663 25.2566C147.663 27.0176 145.875 27.7478 143.406 27.7478C140.382 27.7478 138.679 26.5022 138.423 24.6126H133.399C133.868 28.9511 137.231 32 143.362 32C148.941 32 152.644 29.4226 152.644 24.998C152.644 21.0466 149.963 18.9847 145.747 18.3408ZM54.4156 0.214645C52.5422 0.214645 51.1363 1.5887 51.1363 3.47823C51.1363 5.36775 52.5406 6.74181 54.4156 6.74181C56.289 6.74181 57.6948 5.36775 57.6948 3.47823C57.6948 1.5887 56.289 0.214645 54.4156 0.214645ZM129.397 16.9667C129.397 12.1567 126.502 8.93541 120.37 8.93541C114.58 8.93541 111.344 11.8998 110.705 16.4529H115.772C116.028 14.6918 117.39 13.2316 120.285 13.2316C122.883 13.2316 124.161 14.391 124.161 15.8089C124.161 17.6562 121.818 18.1278 118.923 18.4286C115.006 18.8579 110.152 20.2319 110.152 25.3867C110.152 29.382 113.09 31.9577 117.774 31.9577C121.436 31.9577 123.735 30.4113 124.885 27.9624C125.056 30.1528 126.673 31.5707 128.931 31.5707H131.911V26.9754H129.398V16.9667H129.397ZM124.373 22.5507C124.373 25.5151 121.818 27.7055 118.709 27.7055C116.792 27.7055 115.174 26.8892 115.174 25.172C115.174 22.9817 117.772 22.38 120.157 22.1231C122.456 21.9084 123.733 21.393 124.373 20.4043V22.5507ZM97.2501 8.93379C94.3966 8.93379 92.0122 10.1371 90.3091 12.1551V0H85.1999V31.5707H90.224V28.6502C91.9271 30.7544 94.3548 32 97.2501 32C103.381 32 108.023 27.1038 108.023 20.4888C108.023 13.8739 103.296 8.93379 97.2501 8.93379ZM96.4837 27.2323C92.822 27.2323 90.1388 24.3541 90.1388 20.4888C90.1388 16.6236 92.8638 13.7031 96.5255 13.7031C100.23 13.7031 102.827 16.5813 102.827 20.4888C102.827 24.3541 100.145 27.2323 96.4837 27.2323ZM72.9793 8.93379C69.6583 8.93379 67.486 10.3078 66.2087 12.2413V9.36308H61.1412V31.5691H66.2505V19.5002C66.2505 16.1065 68.3794 13.7015 71.5301 13.7015C74.4687 13.7015 76.2988 15.8057 76.2988 18.8562V31.5707H81.408V18.4709C81.4097 12.8852 78.5578 8.93379 72.9793 8.93379ZM177 19.7587C177 13.4023 172.402 8.93541 166.227 8.93541C159.67 8.93541 154.858 13.9178 154.858 20.4888C154.858 27.4046 160.011 32 166.312 32C171.635 32 175.808 28.821 176.871 24.3118H171.548C170.782 26.2875 168.909 27.4046 166.396 27.4046C163.117 27.4046 160.647 25.3428 160.094 21.7344H176.998V19.7587H177ZM160.393 18.0399C161.203 14.9471 163.502 13.4446 166.142 13.4446C169.037 13.4446 171.251 15.1195 171.762 18.0399H160.393Z" fill="#0052FF"/>
</g>
<defs>
<clipPath id="clip0_410_310">
<rect width="177" height="32" fill="white"/>
</clipPath>
</defs>
</svg>
