<svg width="192" height="37" viewBox="0 0 192 37" fill="none" xmlns="http://www.w3.org/2000/svg">
<path d="M168.844 18.657C167.857 18.0032 166.77 17.5384 165.74 16.9572C165.073 16.5795 164.362 16.2453 163.782 15.7658C162.796 14.9523 162.999 13.3542 164.029 12.6568C165.508 11.6689 167.958 12.2209 168.22 14.2404C168.22 14.2839 168.263 14.3131 168.307 14.3131H170.54C170.598 14.3131 170.642 14.2695 170.627 14.2114C170.511 12.8166 169.974 11.6543 168.989 10.9134C168.046 10.2015 166.973 9.82376 165.826 9.82376C159.925 9.82376 159.388 16.0855 162.563 18.0614C162.926 18.2938 166.044 19.8628 167.147 20.5457C168.249 21.2285 168.597 22.478 168.118 23.4659C167.683 24.3666 166.552 24.9914 165.421 24.9187C164.188 24.8461 163.231 24.1778 162.897 23.1317C162.839 22.9429 162.81 22.5797 162.81 22.4199C162.81 22.3763 162.767 22.3327 162.723 22.3327H160.302C160.258 22.3327 160.215 22.3763 160.215 22.4199C160.215 24.1778 160.65 25.1512 161.839 26.0375C162.955 26.8801 164.173 27.2288 165.436 27.2288C168.742 27.2288 170.453 25.3545 170.801 23.4078C171.105 21.5045 170.54 19.7902 168.844 18.657Z" fill="#161616"/>
<path d="M63.6912 10.1435H62.6181H61.4434C61.3999 10.1435 61.3709 10.1725 61.3564 10.2016L59.3697 16.7684C59.3407 16.8556 59.2247 16.8556 59.1957 16.7684L57.209 10.2016C57.1944 10.158 57.1654 10.1435 57.1219 10.1435H55.9473H54.8741H53.424C53.3804 10.1435 53.3369 10.187 53.3369 10.2306V26.9964C53.3369 27.0399 53.3804 27.0835 53.424 27.0835H55.8458C55.8893 27.0835 55.9328 27.0399 55.9328 26.9964V14.255C55.9328 14.1533 56.0778 14.1388 56.1068 14.2259L58.108 20.8364L58.253 21.3012C58.2675 21.3448 58.2965 21.3594 58.3401 21.3594H60.1963C60.2398 21.3594 60.2688 21.3303 60.2833 21.3012L60.4283 20.8364L62.4296 14.2259C62.4586 14.1242 62.6036 14.1533 62.6036 14.255V26.9964C62.6036 27.0399 62.6471 27.0835 62.6906 27.0835H65.1124C65.1559 27.0835 65.1994 27.0399 65.1994 26.9964V10.2306C65.1994 10.187 65.1559 10.1435 65.1124 10.1435H63.6912Z" fill="#161616"/>
<path d="M131.762 10.1435C131.719 10.1435 131.69 10.1725 131.675 10.2016L129.689 16.7684C129.66 16.8556 129.544 16.8556 129.515 16.7684L127.528 10.2016C127.514 10.158 127.485 10.1435 127.441 10.1435H123.757C123.714 10.1435 123.67 10.187 123.67 10.2306V26.9964C123.67 27.0399 123.714 27.0835 123.757 27.0835H126.18C126.223 27.0835 126.267 27.0399 126.267 26.9964V14.255C126.267 14.1533 126.412 14.1388 126.441 14.2259L128.441 20.8364L128.587 21.3012C128.601 21.3448 128.63 21.3594 128.674 21.3594H130.53C130.573 21.3594 130.603 21.3303 130.617 21.3012L130.762 20.8364L132.764 14.2259C132.793 14.1242 132.938 14.1533 132.938 14.255V26.9964C132.938 27.0399 132.981 27.0835 133.025 27.0835H135.446C135.49 27.0835 135.533 27.0399 135.533 26.9964V10.2306C135.533 10.187 135.49 10.1435 135.446 10.1435H131.762Z" fill="#161616"/>
<path d="M100.526 10.1435H96.0154H93.5936H89.0836C89.0401 10.1435 88.9966 10.187 88.9966 10.2306V12.3227C88.9966 12.3663 89.0401 12.4099 89.0836 12.4099H93.5067V26.9964C93.5067 27.0399 93.5501 27.0835 93.5936 27.0835H96.0154C96.0589 27.0835 96.1025 27.0399 96.1025 26.9964V12.4099H100.526C100.569 12.4099 100.612 12.3663 100.612 12.3227V10.2306C100.612 10.187 100.584 10.1435 100.526 10.1435Z" fill="#161616"/>
<path d="M114.811 27.0833H117.014C117.072 27.0833 117.116 27.0252 117.101 26.9672L112.548 10.1433C112.533 10.0997 112.504 10.0851 112.461 10.0851H111.62H110.141H109.3C109.256 10.0851 109.227 10.1142 109.213 10.1433L104.659 26.9672C104.645 27.0252 104.688 27.0833 104.746 27.0833H106.95C106.994 27.0833 107.023 27.0543 107.037 27.0252L108.357 22.1291C108.371 22.0856 108.4 22.071 108.444 22.071H113.317C113.361 22.071 113.39 22.1001 113.404 22.1291L114.724 27.0252C114.738 27.0543 114.782 27.0833 114.811 27.0833ZM109.024 19.6739L110.793 13.1215C110.822 13.0344 110.938 13.0344 110.967 13.1215L112.737 19.6739C112.751 19.732 112.708 19.7901 112.65 19.7901H109.111C109.053 19.7901 109.01 19.732 109.024 19.6739Z" fill="#161616"/>
<path d="M152.399 27.0833H154.602C154.66 27.0833 154.704 27.0252 154.689 26.9672L150.136 10.1433C150.122 10.0997 150.093 10.0851 150.049 10.0851H149.209H147.729H146.888C146.844 10.0851 146.815 10.1142 146.801 10.1433L142.247 26.9672C142.233 27.0252 142.276 27.0833 142.335 27.0833H144.539C144.583 27.0833 144.612 27.0543 144.626 27.0252L145.946 22.1291C145.96 22.0856 145.989 22.071 146.033 22.071H150.905C150.949 22.071 150.978 22.1001 150.992 22.1291L152.312 27.0252C152.326 27.0543 152.355 27.0833 152.399 27.0833ZM146.612 19.6739L148.381 13.1215C148.41 13.0344 148.527 13.0344 148.556 13.1215L150.325 19.6739C150.339 19.732 150.296 19.7901 150.238 19.7901H146.699C146.641 19.7901 146.598 19.732 146.612 19.6739Z" fill="#161616"/>
<path d="M75.0318 24.5992V19.398C75.0318 19.3545 75.0754 19.3109 75.1189 19.3109H81.5721C81.6156 19.3109 81.6592 19.2672 81.6592 19.2236V17.1316C81.6592 17.088 81.6156 17.0444 81.5721 17.0444H75.1189C75.0754 17.0444 75.0318 17.0008 75.0318 16.9572V12.5116C75.0318 12.468 75.0754 12.4244 75.1189 12.4244H82.4568C82.5003 12.4244 82.5438 12.3808 82.5438 12.3372V10.2451C82.5438 10.2016 82.5003 10.158 82.4568 10.158H75.0318H72.5231C72.4796 10.158 72.436 10.2016 72.436 10.2451V12.4244V17.0589V19.3254V24.7009V26.9963C72.436 27.0399 72.4796 27.0835 72.5231 27.0835H75.0318H82.7613C82.8048 27.0835 82.8483 27.0399 82.8483 26.9963V24.7881C82.8483 24.7445 82.8048 24.7009 82.7613 24.7009H75.1044C75.0608 24.6864 75.0318 24.6572 75.0318 24.5992Z" fill="#161616"/>
<path d="M190.973 26.9382L182.591 18.2648C182.562 18.2357 182.562 18.1776 182.591 18.1486L190.133 10.3032C190.191 10.2451 190.147 10.158 190.075 10.158H186.986C186.957 10.158 186.942 10.1725 186.928 10.187L180.533 16.841C180.475 16.8991 180.387 16.8555 180.387 16.7829V10.2451C180.387 10.2016 180.344 10.158 180.3 10.158H177.878C177.835 10.158 177.791 10.2016 177.791 10.2451V27.0109C177.791 27.0545 177.835 27.0981 177.878 27.0981H180.3C180.344 27.0981 180.387 27.0545 180.387 27.0109V19.6305C180.387 19.5579 180.489 19.5142 180.533 19.5723L187.783 27.069C187.797 27.0835 187.826 27.0981 187.841 27.0981H190.93C190.988 27.0835 191.031 26.9818 190.973 26.9382Z" fill="#161616"/>
<path d="M36.7907 1.12122L22.1294 12.0175L24.8558 5.59596L36.7907 1.12122Z" fill="#E17726" stroke="#E17726" stroke-width="0.25" stroke-linecap="round" stroke-linejoin="round"/>
<path d="M2.97266 1.12122L17.5034 12.1192L14.9076 5.59595L2.97266 1.12122Z" fill="#E27625" stroke="#E27625" stroke-width="0.25" stroke-linecap="round" stroke-linejoin="round"/>
<path d="M31.5118 26.3859L27.6108 32.3716L35.9638 34.6817L38.3567 26.5168L31.5118 26.3859Z" fill="#E27625" stroke="#E27625" stroke-width="0.25" stroke-linecap="round" stroke-linejoin="round"/>
<path d="M1.4209 26.5168L3.79918 34.6817L12.1377 32.3716L8.25122 26.3859L1.4209 26.5168Z" fill="#E27625" stroke="#E27625" stroke-width="0.25" stroke-linecap="round" stroke-linejoin="round"/>
<path d="M11.6879 16.2743L9.36768 19.7902L17.6337 20.1679L17.3582 11.233L11.6879 16.2743Z" fill="#E27625" stroke="#E27625" stroke-width="0.25" stroke-linecap="round" stroke-linejoin="round"/>
<path d="M28.0745 16.2744L22.3174 11.1314L22.1289 20.168L30.3948 19.7903L28.0745 16.2744Z" fill="#E27625" stroke="#E27625" stroke-width="0.25" stroke-linecap="round" stroke-linejoin="round"/>
<path d="M12.1377 32.3716L17.1407 29.9454L12.8338 26.5749L12.1377 32.3716Z" fill="#E27625" stroke="#E27625" stroke-width="0.25" stroke-linecap="round" stroke-linejoin="round"/>
<path d="M22.6226 29.9454L27.6111 32.3716L26.9295 26.5749L22.6226 29.9454Z" fill="#E27625" stroke="#E27625" stroke-width="0.25" stroke-linecap="round" stroke-linejoin="round"/>
<path d="M27.6111 32.3719L22.6226 29.9457L23.0286 33.2L22.985 34.5802L27.6111 32.3719Z" fill="#D5BFB2" stroke="#D5BFB2" stroke-width="0.25" stroke-linecap="round" stroke-linejoin="round"/>
<path d="M12.1377 32.3719L16.7783 34.5802L16.7493 33.2L17.1407 29.9457L12.1377 32.3719Z" fill="#D5BFB2" stroke="#D5BFB2" stroke-width="0.25" stroke-linecap="round" stroke-linejoin="round"/>
<path d="M16.8653 24.4247L12.7178 23.2044L15.6471 21.8532L16.8653 24.4247Z" fill="#233447" stroke="#233447" stroke-width="0.25" stroke-linecap="round" stroke-linejoin="round"/>
<path d="M22.8979 24.4247L24.1161 21.8532L27.06 23.2044L22.8979 24.4247Z" fill="#233447" stroke="#233447" stroke-width="0.25" stroke-linecap="round" stroke-linejoin="round"/>
<path d="M12.1374 32.3716L12.8625 26.3859L8.25098 26.5168L12.1374 32.3716Z" fill="#CC6228" stroke="#CC6228" stroke-width="0.25" stroke-linecap="round" stroke-linejoin="round"/>
<path d="M26.9004 26.3859L27.611 32.3716L31.512 26.5168L26.9004 26.3859Z" fill="#CC6228" stroke="#CC6228" stroke-width="0.25" stroke-linecap="round" stroke-linejoin="round"/>
<path d="M30.3948 19.7901L22.1289 20.1678L22.8975 24.4247L24.1157 21.8531L27.0595 23.2043L30.3948 19.7901Z" fill="#CC6228" stroke="#CC6228" stroke-width="0.25" stroke-linecap="round" stroke-linejoin="round"/>
<path d="M12.7176 23.2043L15.6469 21.8531L16.8651 24.4247L17.6337 20.1678L9.36768 19.7901L12.7176 23.2043Z" fill="#CC6228" stroke="#CC6228" stroke-width="0.25" stroke-linecap="round" stroke-linejoin="round"/>
<path d="M9.36768 19.7901L12.8336 26.5749L12.7175 23.2043L9.36768 19.7901Z" fill="#E27525" stroke="#E27525" stroke-width="0.25" stroke-linecap="round" stroke-linejoin="round"/>
<path d="M27.0602 23.2043L26.9297 26.5749L30.3956 19.7901L27.0602 23.2043Z" fill="#E27525" stroke="#E27525" stroke-width="0.25" stroke-linecap="round" stroke-linejoin="round"/>
<path d="M17.6339 20.1678L16.8652 24.4247L17.8368 29.4514L18.0544 22.8265L17.6339 20.1678Z" fill="#E27525" stroke="#E27525" stroke-width="0.25" stroke-linecap="round" stroke-linejoin="round"/>
<path d="M22.1292 20.1678L21.7231 22.8121L21.9262 29.4514L22.8978 24.4247L22.1292 20.1678Z" fill="#E27525" stroke="#E27525" stroke-width="0.25" stroke-linecap="round" stroke-linejoin="round"/>
<path d="M22.8979 24.4248L21.9263 29.4515L22.6224 29.9456L26.9294 26.575L27.0599 23.2044L22.8979 24.4248Z" fill="#F5841F" stroke="#F5841F" stroke-width="0.25" stroke-linecap="round" stroke-linejoin="round"/>
<path d="M12.7178 23.2044L12.8339 26.575L17.1408 29.9456L17.8369 29.4515L16.8653 24.4248L12.7178 23.2044Z" fill="#F5841F" stroke="#F5841F" stroke-width="0.25" stroke-linecap="round" stroke-linejoin="round"/>
<path d="M22.985 34.5801L23.0284 33.1999L22.6515 32.8802H17.1118L16.7493 33.1999L16.7783 34.5801L12.1377 32.3717L13.7619 33.7083L17.0538 35.9893H22.6949L26.0013 33.7083L27.611 32.3717L22.985 34.5801Z" fill="#C0AC9D" stroke="#C0AC9D" stroke-width="0.25" stroke-linecap="round" stroke-linejoin="round"/>
<path d="M22.6222 29.9454L21.9261 29.4515H17.8366L17.1406 29.9454L16.749 33.1999L17.1116 32.8802H22.6512L23.0283 33.1999L22.6222 29.9454Z" fill="#161616" stroke="#161616" stroke-width="0.25" stroke-linecap="round" stroke-linejoin="round"/>
<path d="M37.4143 12.7293L38.647 6.71464L36.7907 1.12122L22.6226 11.6543L28.0751 16.2743L35.7756 18.5262L37.4723 16.5359L36.7328 15.9982L37.9073 14.9232L37.0083 14.2258L38.1829 13.325L37.4143 12.7293Z" fill="#763E1A" stroke="#763E1A" stroke-width="0.25" stroke-linecap="round" stroke-linejoin="round"/>
<path d="M1.11621 6.71464L2.36336 12.7293L1.56577 13.325L2.75491 14.2258L1.8558 14.9232L3.03044 15.9982L2.29085 16.5359L3.98756 18.5262L11.688 16.2743L17.1406 11.6543L2.97244 1.12122L1.11621 6.71464Z" fill="#763E1A" stroke="#763E1A" stroke-width="0.25" stroke-linecap="round" stroke-linejoin="round"/>
<path d="M35.7758 18.5261L28.0753 16.2743L30.3956 19.7902L26.9297 26.5749L31.5122 26.5168H38.357L35.7758 18.5261Z" fill="#F5841F" stroke="#F5841F" stroke-width="0.25" stroke-linecap="round" stroke-linejoin="round"/>
<path d="M11.6881 16.2743L3.9877 18.5261L1.4209 26.5168H8.25122L12.8337 26.5749L9.36786 19.7902L11.6881 16.2743Z" fill="#F5841F" stroke="#F5841F" stroke-width="0.25" stroke-linecap="round" stroke-linejoin="round"/>
<path d="M22.1291 20.1679L22.6222 11.6542L24.8554 5.59595H14.9072L17.1405 11.6542L17.6335 20.1679L17.8221 22.8411L17.8366 29.4516H21.9261L21.9406 22.8411L22.1291 20.1679Z" fill="#F5841F" stroke="#F5841F" stroke-width="0.25" stroke-linecap="round" stroke-linejoin="round"/>
</svg>
