<svg width="197" height="46" viewBox="0 0 197 46" fill="none" xmlns="http://www.w3.org/2000/svg">
<g clip-path="url(#clip0_410_315)">
<path d="M66.4809 22.3581V15.4047H70.1979C72.5342 15.4047 73.9148 16.6884 73.9148 18.8279C73.9148 20.8605 72.5342 22.2512 70.1979 22.2512H66.4809V22.3581ZM70.7289 26.3163C75.5078 26.3163 78.5876 23.214 78.5876 18.8279C78.5876 14.4419 75.4016 11.3395 70.7289 11.3395H61.8081V35.4093H66.4809V26.3163H70.7289Z" fill="#2C2D30"/>
<path d="M86.2338 25.5674C86.34 23.7488 87.402 22.2512 89.3136 22.2512C91.4376 22.2512 92.3934 23.7488 92.3934 25.5674V35.3023H96.8538V24.7116C96.8538 21.0744 94.9422 18.0791 90.6942 18.0791C89.1012 18.0791 87.2958 18.614 86.2338 19.8977V10.5907H81.7734V35.1954H86.2338V25.5674Z" fill="#2C2D30"/>
<path d="M100.358 30.9163C100.358 33.4837 102.482 35.9442 106.093 35.9442C108.536 35.9442 110.129 34.7674 110.978 33.4837C110.978 34.1256 111.085 35.0884 111.191 35.5163H115.333C115.226 34.9814 115.12 33.6977 115.12 32.8419V24.6047C115.12 21.2884 113.209 18.293 107.899 18.293C103.438 18.293 100.996 21.1814 100.783 23.8558L104.819 24.7116C104.925 23.214 105.987 22.0372 108.005 22.0372C109.916 22.0372 110.766 23 110.766 24.1768C110.766 24.7116 110.447 25.2465 109.492 25.3535L105.456 25.9954C102.589 26.2093 100.358 27.9209 100.358 30.9163ZM107.049 32.5209C105.562 32.5209 104.925 31.5581 104.925 30.5954C104.925 29.3116 105.881 28.6698 106.943 28.4558L110.66 27.9209V28.6698C110.66 31.6651 108.961 32.5209 107.049 32.5209Z" fill="#2C2D30"/>
<path d="M124.147 25.7814C124.147 23.8558 125.315 22.3581 127.227 22.3581C129.351 22.3581 130.307 23.8558 130.307 25.6744V35.4093H134.767V24.8186C134.767 21.1814 132.855 18.186 128.714 18.186C126.908 18.186 124.891 18.9349 123.935 20.7535V18.7209H119.581V35.4093H124.041V25.7814H124.147Z" fill="#2C2D30"/>
<path d="M144.856 13.693H140.82V16.0465C140.82 17.5442 139.971 18.7209 138.271 18.7209H137.422V22.786H140.395V30.5953C140.395 33.8046 142.413 35.7302 145.705 35.7302C146.98 35.7302 147.829 35.5163 148.254 35.3023V31.5581C148.042 31.6651 147.405 31.6651 146.874 31.6651C145.599 31.6651 144.962 31.2372 144.962 29.7395V22.679H148.254V18.6139H144.962V13.693H144.856Z" fill="#2C2D30"/>
<path d="M159.299 31.8791C157.069 31.8791 155.051 30.2744 155.051 27.0651C155.051 23.8558 157.069 22.2512 159.299 22.2512C161.529 22.2512 163.547 23.8558 163.547 27.0651C163.547 30.2744 161.529 31.8791 159.299 31.8791ZM159.299 18.186C154.308 18.186 150.591 21.9302 150.591 27.0651C150.591 32.2 154.308 35.9442 159.299 35.9442C164.291 35.9442 168.008 32.2 168.008 27.0651C168.008 21.9302 164.291 18.186 159.299 18.186Z" fill="#2C2D30"/>
<path d="M176.079 35.4093V25.6744C176.079 23.8558 177.247 22.3581 179.158 22.3581C181.176 22.3581 182.132 23.7488 182.132 25.5674V35.5163H186.592V25.6744C186.592 23.8558 187.76 22.3581 189.672 22.3581C191.69 22.3581 192.646 23.7488 192.646 25.5674V35.5163H197V24.6047C197 20.1116 194.026 18.293 190.946 18.293C188.716 18.293 187.017 19.0419 185.636 21.0744C184.787 19.2558 182.981 18.293 180.751 18.293C178.946 18.293 176.822 19.1488 175.866 20.8605V18.8279H171.618V35.5163H176.079V35.4093Z" fill="#2C2D30"/>
<path d="M22.8329 46C35.4431 46 45.6658 35.7025 45.6658 23C45.6658 10.2975 35.4431 0 22.8329 0C10.2226 0 0 10.2975 0 23C0 35.7025 10.2226 46 22.8329 46Z" fill="url(#paint0_linear_410_315)"/>
<path d="M39.1878 23.3209H35.1522C35.1522 15.0837 28.4616 8.34418 20.2842 8.34418C12.1069 8.34418 5.52252 14.8698 5.41632 23C5.20392 31.3442 13.0627 38.7256 21.4524 38.7256H22.5144C29.8422 38.7256 39.8249 32.9488 41.3117 25.8884C41.5241 24.4977 40.4621 23.3209 39.1878 23.3209ZM14.2309 23.6419C14.2309 24.7116 13.3813 25.6744 12.2131 25.6744C11.1511 25.6744 10.1953 24.8186 10.1953 23.6419V20.4325C10.1953 19.3628 11.0449 18.4 12.2131 18.4C13.2751 18.4 14.2309 19.2558 14.2309 20.4325V23.6419ZM21.24 23.6419C21.24 24.7116 20.3904 25.6744 19.2222 25.6744C18.1603 25.6744 17.2045 24.8186 17.2045 23.6419V20.4325C17.2045 19.3628 18.0541 18.4 19.2222 18.4C20.2842 18.4 21.24 19.2558 21.24 20.4325V23.6419Z" fill="url(#paint1_linear_410_315)"/>
</g>
<defs>
<linearGradient id="paint0_linear_410_315" x1="22.8329" y1="0" x2="22.8329" y2="46" gradientUnits="userSpaceOnUse">
<stop stop-color="#534BB1"/>
<stop offset="1" stop-color="#551BF9"/>
</linearGradient>
<linearGradient id="paint1_linear_410_315" x1="23.3189" y1="8.31914" x2="23.3189" y2="38.6596" gradientUnits="userSpaceOnUse">
<stop stop-color="white"/>
<stop offset="1" stop-color="white" stop-opacity="0.82"/>
</linearGradient>
<clipPath id="clip0_410_315">
<rect width="197" height="46" fill="white"/>
</clipPath>
</defs>
</svg>
