<svg viewBox="0 0 58 32" fill="none" xmlns="http://www.w3.org/2000/svg">
<path d="M24.7532 25.6267C21.139 22.5955 19.2154 23.1368 16.6339 24.2111C13.3028 25.5934 8.06483 26.6177 0.953125 24.2111L3.0933 19.0563C7.31535 20.4803 10.3716 19.7891 13.0114 18.2319C16.409 16.2333 21.0558 13.4935 28.2841 19.5643C31.2986 22.0959 34.3881 23.778 36.6532 23.0119C38.3021 22.4623 39.1765 20.0057 39.6178 18.0487C39.6595 17.8738 39.7261 17.3742 39.7761 16.9328C40.1758 13.8766 40.842 7.2812 45.7552 3.90855C51.0099 0.302736 56.531 0.302734 56.531 0.302734L57.5303 10.2291C54.9904 9.85441 53.225 10.3707 51.7344 11.1951C46.1216 14.318 51.0099 26.3096 42.2743 30.3401C33.8718 34.2457 27.0016 27.5088 24.7532 25.6267Z" fill="#03A9F4"/>
</svg>
