<svg viewBox="0 0 103 102" fill="none" xmlns="http://www.w3.org/2000/svg">
<path d="M6.84425 98.2017C8.64364 100.152 16.0552 96.751 21.9052 94.0242C26.2888 91.987 43.8308 84.7895 52.5503 81.0559C54.9046 80.0492 58.329 78.7334 60.7942 75.4913C62.982 72.6059 68.7845 60.351 57.1003 47.9376C45.2418 35.334 33.0266 38.8139 28.4607 42.048C25.7735 43.9504 23.5857 48.2389 22.6028 50.4187C18.4491 59.6297 12.5278 76.5059 10.118 83.1407C8.35034 88.0315 5.06071 96.2675 6.84425 98.2017Z" fill="#FFC107"/>
<path d="M21.4297 53.1931C21.5406 54.5724 21.8181 56.8157 22.7693 61.1358C23.4193 64.1004 24.4815 67.2078 25.3455 69.2608C27.9376 75.4358 31.576 77.9248 35.262 79.9224C41.5242 83.3151 45.7809 83.9492 45.7809 83.9492L40.676 86.034C40.676 86.034 37.5845 85.3919 33.3675 83.3151C29.3486 81.3334 25.1632 77.9803 22.1034 71.4169C20.7797 68.5712 20.0108 65.8126 19.5669 63.6248C19.0199 60.9138 18.9327 59.376 18.9327 59.376L21.4297 53.1931ZM15.1595 69.2687C15.1595 69.2687 15.7937 74.4132 20.0425 80.9053C25.0205 88.4992 31.9723 89.7437 31.9723 89.7437L27.351 91.6462C27.351 91.6462 22.1906 90.0687 17.2839 83.3706C14.2242 79.1931 13.3681 74.1992 13.3681 74.1992L15.1595 69.2687ZM10.7601 81.4602C10.7601 81.4602 11.9175 85.8992 14.4541 89.2126C17.4742 93.1681 21.3187 94.3175 21.3187 94.3175L17.7754 95.887C17.7754 95.887 15.0882 95.3242 12.1473 91.5986C9.91198 88.7687 9.27783 85.5187 9.27783 85.5187L10.7601 81.4602Z" fill="#FF8F00"/>
<path opacity="0.44" d="M8.83424 92.7322C8.6757 92.3755 8.6757 91.9712 8.84217 91.6224L29.0318 49.7529L32.3531 62.2377L11.1092 92.9224C10.5385 93.7785 9.25436 93.6676 8.83424 92.7322Z" fill="#FFFDE7"/>
<path d="M33.9544 66.4311C43.3874 77.4652 54.1282 76.086 57.7032 73.2957C61.2862 70.4976 64.116 60.8823 54.7227 50.0305C44.8776 38.6634 33.7325 41.9055 31.1563 44.3628C28.5801 46.8201 25.2984 56.3085 33.9544 66.4311Z" fill="url(#paint0_linear_474_129)"/>
<defs>
<linearGradient id="paint0_linear_474_129" x1="59.9021" y1="49.5065" x2="36.3063" y2="63.6638" gradientUnits="userSpaceOnUse">
<stop offset="0.024" stop-color="#8F4700"/>
<stop offset="1" stop-color="#703E2D"/>
</linearGradient>
</defs>
</svg>
