<svg width="107" height="108" viewBox="0 0 107 108" fill="none" xmlns="http://www.w3.org/2000/svg">
<path d="M37.8415 61.9689L34.2274 58.7295C40.8644 51.318 39.1156 45.8718 37.8415 41.9079C37.5834 41.1085 37.3419 40.3507 37.1836 39.6262C36.6174 37.0613 36.5008 34.8295 36.6757 32.8809C34.1274 29.7081 33.0032 26.3854 32.9283 26.1606C31.3794 21.4722 32.5452 16.9004 35.2183 12.6117C40.6229 3.90942 50.4078 3.90942 50.4078 3.90942L53.6722 12.645C51.1905 12.5451 43.0546 12.67 40.5563 16.6089C37.4002 21.5721 39.4737 24.6366 39.6236 24.9864C40.2315 24.1953 40.8478 23.5624 41.3974 23.0711C45.3863 19.5319 48.8505 19.0239 51.0573 19.2237C53.5389 19.4486 55.7873 20.6977 57.3946 22.7463C59.1517 24.9947 59.8762 27.9177 59.3182 30.5742C58.7769 33.164 57.0531 35.3542 54.4633 36.7449C49.9414 39.1765 46.1774 38.8434 43.6541 38.0023C43.6708 38.0606 43.6791 38.1272 43.6958 38.1855C43.7874 38.6019 43.9706 39.1848 44.1871 39.8594C45.6611 44.4228 48.4008 51.6678 37.8415 61.9689V61.9689ZM43.9623 30.7157C44.4452 31.0655 44.9532 31.3569 45.4779 31.5651C47.2266 32.2646 49.1336 32.0315 51.2988 30.8656C52.5729 30.1828 52.7228 29.4499 52.7728 29.2084C52.9227 28.484 52.6728 27.5596 52.1316 26.8684C51.6569 26.2605 51.1073 25.9441 50.4494 25.8774C49.2003 25.7692 47.5098 26.5603 45.8193 28.0676C45.0115 28.7921 44.3953 29.6831 43.9623 30.7157Z" fill="#F44336"/>
<path d="M52.3066 63.3262L47.1353 63.1846C47.1353 63.1846 49.5919 49.311 57.5447 46.9793C59.0353 46.5462 60.6675 46.1049 62.308 45.8634C63.2823 45.7135 64.8229 45.4886 65.5807 45.2055C65.7556 43.8981 65.206 42.2326 64.5897 40.3422C64.1067 38.8766 63.6071 37.3693 63.3406 35.7205C62.8243 32.506 63.682 29.6663 65.7556 27.7094C68.2872 25.336 72.376 24.5782 76.9894 25.6275C79.6209 26.2271 81.5612 27.5178 83.2684 28.6504C85.7084 30.2742 87.1324 31.0987 90.1136 29.0917C93.7194 26.6601 89.0061 17.1417 86.4995 11.6456L95.8513 7.74829C97.1087 10.4964 103.18 24.6365 99.174 32.7059C97.8249 35.4207 95.5015 37.2194 92.4537 37.8939C85.8249 39.3762 81.9443 36.7947 79.113 34.9127C77.7722 34.0216 76.598 33.3221 75.3239 32.9557C66.4718 30.4325 78.8298 43.4567 73.0422 49.311C69.5696 52.8169 61.0839 53.7412 60.5342 53.8745C55.0714 55.1902 52.3066 63.3262 52.3066 63.3262V63.3262Z" fill="#F48FB1"/>
<path d="M36.6672 32.8809C36.509 34.7129 36.4341 35.8038 36.9087 38.1855C39.1988 39.8677 44.187 39.8677 44.187 39.8677C43.9705 39.1931 43.7789 38.6102 43.6957 38.1938C43.679 38.1355 43.6707 38.0689 43.654 38.0106C38.5826 35.479 36.6672 32.8809 36.6672 32.8809V32.8809Z" fill="#C92B27"/>
<path d="M26.2913 41.0835L17.6807 36.8615L21.9693 30.6658L28.723 35.1377L26.2913 41.0835Z" fill="#FFC107"/>
<path d="M13.6004 29.3916C9.20347 28.8004 4.72326 25.0697 4.23193 24.6449L8.55392 19.5735C9.86134 20.681 12.6344 22.5381 14.4914 22.7879L13.6004 29.3916Z" fill="#FB8C00"/>
<path d="M21.3616 18.291L15.0327 16.2175C15.7572 14.0024 15.9487 11.6124 15.574 9.30564L22.1527 8.24805C22.694 11.5957 22.4192 15.0683 21.3616 18.291V18.291Z" fill="#03A9F4"/>
<path d="M60.8862 13.3403L67.3942 11.9163L69.2737 20.5069L62.7658 21.9309L60.8862 13.3403Z" fill="#FB8C00"/>
<path d="M77.0308 15.3765L72.4507 10.5382C74.849 8.26478 75.3986 5.29186 75.3986 5.25854L81.9774 6.3328C81.8941 6.85743 81.053 11.5708 77.0308 15.3765V15.3765Z" fill="#FFC107"/>
<path d="M79.5742 41.0336L85.3927 39.2148L87.3796 45.5737L81.5612 47.3925L79.5742 41.0336Z" fill="#FB8C00"/>
<path d="M81.2697 94.7044L74.6494 93.9216C74.9325 91.5649 73.1754 88.6753 72.6924 88.0341L78.022 84.0369C78.4217 84.5615 81.8943 89.3665 81.2697 94.7044V94.7044Z" fill="#F44336"/>
<path d="M100.273 86.2603C97.7831 85.8856 95.2349 85.7357 92.72 85.8273L92.4951 79.1653C95.4181 79.0653 98.3743 79.2319 101.264 79.6732L100.273 86.2603V86.2603Z" fill="#FB8C00"/>
<path d="M91.3159 95.4306L95.996 90.6897L102.437 97.0503L97.7573 101.79L91.3159 95.4306Z" fill="#F48FB1"/>
<path d="M77.5666 53.3198L82.38 58.8235L76.8763 63.6368L72.063 58.1331L77.5666 53.3198Z" fill="#F44336"/>
</svg>
