<svg width="109" height="128" viewBox="0 0 109 128" fill="none" xmlns="http://www.w3.org/2000/svg">
<path d="M10.5583 128L0 127.674C0 127.674 5.01562 95.7219 21.2527 90.3518C24.296 89.3545 27.6285 88.338 30.9779 87.7818C32.9671 87.4366 36.1125 86.9188 37.6597 86.2667C38.0168 83.2556 36.8946 79.4198 35.6365 75.0662C34.6503 71.6907 33.6302 68.2194 33.0861 64.4219C32.032 57.0189 33.7832 50.4789 38.0168 45.9718C43.1854 40.5058 51.5335 38.7606 60.9527 41.1771C66.3253 42.558 70.2868 45.5307 73.7723 48.139C78.7539 51.8789 81.6613 53.7776 87.748 49.1555C95.1099 43.5553 85.4867 21.6338 80.3691 8.97573L99.4625 0C102.03 6.32904 114.424 38.8948 106.246 57.4792C103.492 63.7315 98.7484 67.8741 92.5256 69.4276C78.9919 72.8415 71.0689 66.896 65.2882 62.5616C62.5509 60.5094 60.1536 58.8984 57.5522 58.0545C39.479 52.2433 64.7101 82.2391 52.8936 95.7219C45.8038 103.796 28.4786 105.925 27.3564 106.232C16.203 109.262 10.5583 128 10.5583 128V128Z" fill="#F48FB1"/>
</svg>
