<svg width="49" height="112" viewBox="0 0 49 112" fill="none" xmlns="http://www.w3.org/2000/svg">
<path d="M45.5319 111.609L38.0319 108.1C40.6704 90.7906 33.8087 82.1969 28.8129 75.9429C27.8038 74.6824 26.8514 73.4855 26.0375 72.2959C23.1478 68.0885 21.133 64.1933 19.7412 60.62C13.7124 56.5659 9.45011 51.3586 9.16318 51.0055C3.19856 43.6346 0.936868 34.7807 0.91311 25.4917C0.838916 6.65529 13.8351 0.56304 13.8351 0.56304L25.4512 14.0612C22.0719 15.4286 11.3697 20.7163 11.3343 29.2746C11.2787 40.0636 16.5868 44.2208 17.0773 44.7493C17.2255 42.9643 17.5165 41.4554 17.837 40.2397C20.1854 31.464 24.3633 28.404 27.4609 27.3853C30.9444 26.2399 34.9718 27.0608 38.8138 29.7022C43.0214 32.6055 46.4197 37.3511 47.8926 42.4213C49.3321 47.3627 48.8678 52.3297 46.587 56.4147C42.6076 63.5532 37.3306 65.3046 33.2783 65.3803C33.349 65.4735 33.4155 65.5868 33.4862 65.6801C33.9549 66.3633 34.6841 67.2856 35.5338 68.35C41.2948 75.5455 50.9717 86.7201 45.5319 111.609V111.609ZM27.6148 52.2339C28.5478 52.555 29.4654 52.7569 30.3357 52.8004C33.2414 52.9552 35.58 51.3533 37.4841 47.9325C38.6073 45.9252 38.1957 44.529 38.0608 44.0686C37.656 42.6872 36.5539 41.1994 35.2589 40.3076C34.1218 39.5223 33.1281 39.3019 32.1987 39.5931C30.4494 40.1784 28.8634 42.6374 27.8743 46.3696C27.4052 48.1606 27.3294 50.1285 27.6148 52.2339Z" fill="#F44336"/>
</svg>
