<svg viewBox="0 0 478 368" fill="none" xmlns="http://www.w3.org/2000/svg">
<path d="M356.611 162.418L348 158.196L352.289 152L359.042 156.472L356.611 162.418Z" fill="#FFC107"/>
<path d="M298.504 281L303.317 286.504L297.813 291.317L293 285.813L298.504 281Z" fill="#F44336"/>
<path d="M163.329 115.043L157 112.969C157.724 110.754 157.916 108.364 157.541 106.058L164.12 105C164.661 108.348 164.387 111.82 163.329 115.043V115.043Z" fill="#03A9F4"/>
<path d="M347.577 213.668L340.957 212.885C341.24 210.528 339.483 207.638 339 206.997L344.33 203C344.729 203.525 348.202 208.33 347.577 213.668V213.668Z" fill="#F44336"/>
<path d="M196.368 308.818C191.972 308.227 187.491 304.496 187 304.071L191.322 299C192.629 300.108 195.402 301.965 197.26 302.214L196.368 308.818Z" fill="#FB8C00"/>
<path d="M171.778 189.123C169.288 188.748 166.74 188.598 164.225 188.69L164 182.028C166.923 181.928 169.879 182.095 172.769 182.536L171.778 189.123V189.123Z" fill="#FB8C00"/>
</svg>
